<svg width="1000" height="380" viewBox="0 0 1000 380" fill="none" xmlns="http://www.w3.org/2000/svg">
<g clip-path="url(#clip0_107_675)">
<path d="M91.3042 251.086V118.28H177.68V138.448H115.362V174.502H173.206V194.67H115.362V230.919H178.199V251.086H91.3042Z" fill="white"/>
<path d="M332.499 253.032C322.513 253.032 313.888 250.956 306.625 246.806C299.406 242.613 293.851 236.69 289.96 229.038C286.069 221.343 284.124 212.286 284.124 201.868C284.124 191.622 286.069 182.63 289.96 174.891C293.894 167.11 299.384 161.057 306.431 156.734C313.478 152.368 321.756 150.185 331.267 150.185C337.406 150.185 343.199 151.179 348.646 153.168C354.136 155.113 358.978 158.139 363.172 162.246C367.408 166.353 370.737 171.584 373.158 177.939C375.579 184.251 376.79 191.773 376.79 200.506V207.704H295.148V191.881H354.288C354.244 187.385 353.272 183.386 351.37 179.885C349.467 176.34 346.809 173.551 343.393 171.519C340.021 169.487 336.087 168.472 331.591 168.472C326.793 168.472 322.578 169.639 318.946 171.973C315.315 174.264 312.483 177.291 310.451 181.052C308.463 184.77 307.447 188.855 307.404 193.308V207.12C307.404 212.913 308.463 217.885 310.581 222.035C312.699 226.142 315.661 229.298 319.465 231.502C323.269 233.664 327.722 234.745 332.823 234.745C336.239 234.745 339.33 234.269 342.097 233.318C344.863 232.324 347.263 230.876 349.295 228.973C351.326 227.071 352.861 224.715 353.899 221.905L375.817 224.369C374.433 230.162 371.796 235.22 367.906 239.543C364.058 243.823 359.13 247.152 353.12 249.53C347.111 251.864 340.238 253.032 332.499 253.032Z" fill="white"/>
<path d="M895.921 102.717C902.225 102.717 907.334 107.827 907.334 114.13V265.353C907.334 271.656 902.225 276.766 895.921 276.766H388.042C381.739 276.766 376.629 271.656 376.629 265.353V250.589C376.629 248.029 377.521 245.565 378.966 243.452C380.563 241.118 382.024 238.631 383.348 235.99C388.38 225.9 390.896 214.175 390.896 200.816C390.896 187.231 388.38 175.422 383.348 165.388C382.058 162.83 380.626 160.421 379.053 158.159C377.561 156.014 376.629 153.504 376.629 150.891V114.13C376.629 107.827 381.739 102.717 388.042 102.717H895.921ZM601.188 150.185C594.228 150.185 587.873 151.222 582.124 153.297C576.374 155.329 571.51 158.399 567.533 162.506C563.556 166.57 560.702 171.628 558.973 177.68L580.891 180.792C582.058 177.377 584.306 174.416 587.635 171.908C591.007 169.401 595.568 168.148 601.318 168.148C606.765 168.148 610.937 169.488 613.833 172.168C616.73 174.849 618.178 178.631 618.178 183.516V183.905C618.178 186.153 617.335 187.818 615.649 188.899C614.006 189.936 611.369 190.714 607.738 191.233C604.106 191.708 599.373 192.249 593.537 192.854C588.695 193.373 584.004 194.216 579.464 195.383C574.968 196.507 570.926 198.171 567.338 200.376C563.75 202.581 560.918 205.521 558.843 209.196C556.768 212.87 555.731 217.517 555.731 223.137C555.731 229.665 557.179 235.156 560.076 239.609C563.015 244.061 566.993 247.433 572.007 249.724C577.065 251.972 582.75 253.096 589.062 253.096C594.25 253.096 598.767 252.383 602.615 250.956C606.506 249.486 609.726 247.563 612.277 245.185C614.871 242.764 616.881 240.17 618.308 237.404H619.085V251.086H641.653V184.424C641.653 177.81 640.442 172.298 638.021 167.888C635.643 163.478 632.487 159.998 628.553 157.448C624.619 154.854 620.274 152.994 615.519 151.87C610.764 150.746 605.987 150.185 601.188 150.185ZM502.322 150.185C492.811 150.185 484.532 152.368 477.486 156.735C470.439 161.058 464.949 167.11 461.015 174.891C457.124 182.629 455.179 191.622 455.179 201.867C455.179 212.286 457.124 221.343 461.015 229.038C464.906 236.69 470.461 242.613 477.68 246.806C484.943 250.956 493.568 253.031 503.554 253.031C511.293 253.031 518.166 251.864 524.175 249.53C530.184 247.152 535.113 243.823 538.96 239.543C542.851 235.22 545.488 230.162 546.872 224.369L524.954 221.906C523.916 224.715 522.382 227.072 520.35 228.974C518.318 230.876 515.919 232.324 513.152 233.319C510.385 234.27 507.294 234.744 503.878 234.744C498.777 234.744 494.324 233.664 490.52 231.502C486.716 229.297 483.755 226.141 481.636 222.034C479.589 218.024 478.534 213.247 478.465 207.703H547.844V200.506C547.844 191.773 546.634 184.25 544.213 177.939C541.792 171.584 538.464 166.353 534.227 162.246C530.034 158.139 525.191 155.113 519.701 153.167C514.254 151.179 508.46 150.185 502.322 150.185ZM701.27 150.185C691.543 150.185 683.113 152.368 675.98 156.735C668.89 161.058 663.399 167.109 659.508 174.891C655.618 182.629 653.672 191.557 653.672 201.673C653.672 211.746 655.575 220.652 659.379 228.39C663.227 236.085 668.695 242.115 675.785 246.482C682.918 250.848 691.457 253.031 701.4 253.031C709.743 253.031 717.006 251.519 723.188 248.492C729.37 245.423 734.255 241.186 737.843 235.782C741.431 230.335 743.507 224.088 744.069 217.041H721.631C720.94 220.629 719.665 223.677 717.806 226.185C715.947 228.692 713.633 230.616 710.867 231.956C708.143 233.253 705.053 233.902 701.594 233.902C696.709 233.902 692.45 232.605 688.819 230.011C685.231 227.374 682.442 223.634 680.454 218.792C678.465 213.907 677.471 208.071 677.471 201.283C677.471 194.583 678.465 188.833 680.454 184.034C682.485 179.236 685.317 175.562 688.949 173.011C692.58 170.417 696.796 169.12 701.594 169.12C707.257 169.12 711.775 170.741 715.147 173.984C718.562 177.183 720.723 181.181 721.631 185.98H744.069C743.55 178.804 741.431 172.536 737.713 167.175C733.996 161.771 729.002 157.599 722.734 154.659C716.509 151.677 709.354 150.185 701.27 150.185ZM875.186 224.11C871.252 224.11 867.881 225.494 865.071 228.26C862.349 230.94 860.965 234.148 860.92 237.883V238.617C860.965 242.434 862.349 245.682 865.071 248.363C867.881 251.129 871.252 252.513 875.186 252.513C877.737 252.513 880.072 251.886 882.19 250.632C884.351 249.335 886.081 247.606 887.377 245.445C888.718 243.283 889.409 240.883 889.453 238.246C889.409 234.356 887.961 231.027 885.108 228.26C882.298 225.493 878.99 224.11 875.186 224.11ZM446.838 150.055C441.132 150.055 436.053 151.634 431.6 154.789C427.191 157.902 424.078 162.333 422.262 168.082H421.224V151.482H398.463V251.086H421.938V192.53C421.938 188.293 422.911 184.553 424.856 181.311C426.801 178.069 429.46 175.54 432.832 173.724C436.247 171.865 440.095 170.936 444.375 170.936C446.363 170.936 448.416 171.087 450.535 171.39C452.696 171.649 454.275 171.951 455.269 172.297V150.703C454.188 150.487 452.826 150.336 451.183 150.249C449.584 150.12 448.135 150.055 446.838 150.055ZM756.04 251.086H779.514V192.724C779.514 187.925 780.422 183.84 782.238 180.468C784.097 177.096 786.648 174.524 789.89 172.751C793.176 170.936 796.893 170.028 801.043 170.028C807.226 170.028 812.025 171.908 815.44 175.669C818.898 179.387 820.627 184.597 820.627 191.297V251.086H844.102V187.666C844.102 179.625 842.675 172.816 839.822 167.24C837.012 161.663 833.035 157.426 827.89 154.53C822.746 151.633 816.714 150.185 809.797 150.185C802.189 150.185 795.921 151.828 790.993 155.114C786.108 158.356 782.497 162.786 780.163 168.406H778.996V118.281H756.04V251.086ZM618.243 215.356C618.243 219.03 617.291 222.424 615.389 225.536C613.53 228.649 610.872 231.157 607.414 233.059C603.955 234.918 599.87 235.847 595.158 235.847C590.273 235.847 586.252 234.745 583.096 232.54C579.94 230.336 578.362 227.071 578.362 222.748C578.362 219.722 579.162 217.258 580.761 215.356C582.361 213.41 584.544 211.897 587.311 210.817C590.078 209.736 593.212 208.957 596.713 208.482C598.27 208.266 600.108 208.006 602.226 207.703C604.344 207.401 606.484 207.055 608.645 206.666C610.807 206.277 612.753 205.823 614.482 205.304C616.254 204.785 617.508 204.224 618.243 203.618V215.356ZM502.646 168.472C507.142 168.472 511.077 169.488 514.449 171.52C517.864 173.552 520.522 176.34 522.424 179.885C524.326 183.387 525.3 187.385 525.343 191.881H478.508C478.734 187.979 479.732 184.369 481.506 181.052C483.538 177.291 486.37 174.264 490.001 171.973C493.633 169.639 497.848 168.472 502.646 168.472Z" fill="white"/>
<path d="M282.852 151.482L247.381 251.086H221.442L185.971 151.482H211.002L233.893 225.472H234.93L257.886 151.482H282.852Z" fill="white"/>
</g>
<defs>
<clipPath id="clip0_107_675">
<rect width="1000" height="380" fill="white"/>
</clipPath>
</defs>
</svg>
